<svg id="SvgjsSvg1006" width="617" height="694.9999923706055" xmlns="http://www.w3.org/2000/svg" version="1.1" xmlns:xlink="http://www.w3.org/1999/xlink" xmlns:svgjs="http://svgjs.com/svgjs"><defs id="SvgjsDefs1007"></defs><g id="SvgjsG1008" transform="translate(25.500015258789062,25)"><path id="SvgjsPath1009" d="M 0 0L 567 0L 567 297.6000003814697L 0 297.6000003814697Z" stroke-dasharray="10,6" stroke="rgba(50,50,50,1)" stroke-width="2" fill-opacity="1" fill="#ffffff"></path><g id="SvgjsG1010"><text id="SvgjsText1011" font-family="微软雅黑" text-anchor="middle" font-size="13px" width="547px" fill="#323232" font-weight="400" align="middle" lineHeight="125%" anchor="middle" family="微软雅黑" size="13px" weight="400" font-style="" opacity="1" y="139.17500019073486" transform="rotate(0)"></text></g></g><g id="SvgjsG1012" transform="translate(226.50001525878906,39)"><path id="SvgjsPath1013" d="M 0 0L 164 0L 164 42L 0 42Z" stroke="none" fill="none"></path><g id="SvgjsG1014"><text id="SvgjsText1015" font-family="微软雅黑" text-anchor="middle" font-size="13px" width="164px" fill="#323232" font-weight="700" align="middle" lineHeight="125%" anchor="middle" family="微软雅黑" size="13px" weight="700" font-style="" opacity="1" y="11.375" transform="rotate(0)"><tspan id="SvgjsTspan1016" dy="16" x="82"><tspan id="SvgjsTspan1017" style="text-decoration:;">Mondo Blockchain</tspan></tspan></text></g></g><g id="SvgjsG1018" transform="translate(25.000015258789062,391)"><path id="SvgjsPath1019" d="M 0 0L 567 0L 567 279L 0 279Z" stroke-dasharray="10,6,3,6" stroke="rgba(50,50,50,1)" stroke-width="2" fill-opacity="1" fill="#ffffff"></path><g id="SvgjsG1020"><text id="SvgjsText1021" font-family="微软雅黑" text-anchor="middle" font-size="13px" width="547px" fill="#323232" font-weight="400" align="middle" lineHeight="125%" anchor="middle" family="微软雅黑" size="13px" weight="400" font-style="" opacity="1" y="129.875" transform="rotate(0)"></text></g></g><g id="SvgjsG1022" transform="translate(157.75001525878906,312.6000061035156)"><path id="SvgjsPath1023" d="M 12.625 0L 25.25 12.625L 16.9175 12.625L 16.9175 65.77499389648438L 25.25 65.77499389648438L 12.625 78.39999389648438L 0 65.77499389648438L 8.3325 65.77499389648438L 8.3325 12.625L 0 12.625L 12.625 0Z" stroke="rgba(50,50,50,1)" stroke-width="2" fill-opacity="1" fill="#ffffff"></path><g id="SvgjsG1024"><text id="SvgjsText1025" font-family="微软雅黑" text-anchor="middle" font-size="13px" width="36px" fill="#323232" font-weight="400" align="middle" lineHeight="125%" anchor="middle" family="微软雅黑" size="13px" weight="400" font-style="" opacity="1" y="29.574996948242188" transform="rotate(0)"></text></g></g><g id="SvgjsG1026" transform="translate(48.00001525878906,617)"><path id="SvgjsPath1027" d="M 0 4Q 0 0 4 0L 517 0Q 521 0 521 4L 521 26Q 521 30 517 30L 4 30Q 0 30 0 26Z" stroke="rgba(50,50,50,1)" stroke-width="2" fill-opacity="1" fill="#ffffff"></path><g id="SvgjsG1028"><text id="SvgjsText1029" font-family="微软雅黑" text-anchor="middle" font-size="13px" width="501px" fill="#323232" font-weight="400" align="middle" lineHeight="125%" anchor="middle" family="微软雅黑" size="13px" weight="400" font-style="" opacity="1" y="5.375" transform="rotate(0)"><tspan id="SvgjsTspan1030" dy="16" x="260.5"><tspan id="SvgjsTspan1031" style="text-decoration:;">HTTP REST API</tspan></tspan></text></g></g><g id="SvgjsG1032" transform="translate(43.00001525878906,337)"><path id="SvgjsPath1033" d="M 0 0L 120 0L 120 40L 0 40Z" stroke="none" fill="none"></path><g id="SvgjsG1034"><text id="SvgjsText1035" font-family="微软雅黑" text-anchor="middle" font-size="13px" width="120px" fill="#323232" font-weight="400" align="middle" lineHeight="125%" anchor="middle" family="微软雅黑" size="13px" weight="400" font-style="" opacity="1" y="10.375" transform="rotate(0)"><tspan id="SvgjsTspan1036" dy="16" x="60"><tspan id="SvgjsTspan1037" style="text-decoration:;">RPC interface</tspan></tspan></text></g></g><g id="SvgjsG1038" transform="translate(48.00001525878906,518)"><path id="SvgjsPath1039" d="M 0 4Q 0 0 4 0L 96 0Q 100 0 100 4L 100 66Q 100 70 96 70L 4 70Q 0 70 0 66Z" stroke="rgba(50,50,50,1)" stroke-width="2" fill-opacity="1" fill="#ffffff"></path><g id="SvgjsG1040"><text id="SvgjsText1041" font-family="微软雅黑" text-anchor="middle" font-size="13px" width="80px" fill="#323232" font-weight="400" align="middle" lineHeight="125%" anchor="middle" family="微软雅黑" size="13px" weight="400" font-style="" opacity="1" y="25.375" transform="rotate(0)"><tspan id="SvgjsTspan1042" dy="16" x="50"><tspan id="SvgjsTspan1043" style="text-decoration:;">账户API</tspan></tspan></text></g></g><g id="SvgjsG1044" transform="translate(172.00001525878906,518)"><path id="SvgjsPath1045" d="M 0 4Q 0 0 4 0L 96 0Q 100 0 100 4L 100 66Q 100 70 96 70L 4 70Q 0 70 0 66Z" stroke="rgba(50,50,50,1)" stroke-width="2" fill-opacity="1" fill="#ffffff"></path><g id="SvgjsG1046"><text id="SvgjsText1047" font-family="微软雅黑" text-anchor="middle" font-size="13px" width="80px" fill="#323232" font-weight="400" align="middle" lineHeight="125%" anchor="middle" family="微软雅黑" size="13px" weight="400" font-style="" opacity="1" y="25.375" transform="rotate(0)"><tspan id="SvgjsTspan1048" dy="16" x="50"><tspan id="SvgjsTspan1049" style="text-decoration:;">交易API</tspan></tspan></text></g></g><g id="SvgjsG1050" transform="translate(299.00001525878906,518)"><path id="SvgjsPath1051" d="M 0 4Q 0 0 4 0L 96 0Q 100 0 100 4L 100 66Q 100 70 96 70L 4 70Q 0 70 0 66Z" stroke="rgba(50,50,50,1)" stroke-width="2" fill-opacity="1" fill="#ffffff"></path><g id="SvgjsG1052"><text id="SvgjsText1053" font-family="微软雅黑" text-anchor="middle" font-size="13px" width="80px" fill="#323232" font-weight="400" align="middle" lineHeight="125%" anchor="middle" family="微软雅黑" size="13px" weight="400" font-style="" opacity="1" y="25.375" transform="rotate(0)"><tspan id="SvgjsTspan1054" dy="16" x="50"><tspan id="SvgjsTspan1055" style="text-decoration:;">合约API</tspan></tspan></text></g></g><g id="SvgjsG1056" transform="translate(424.00001525878906,518)"><path id="SvgjsPath1057" d="M 0 4Q 0 0 4 0L 96 0Q 100 0 100 4L 100 66Q 100 70 96 70L 4 70Q 0 70 0 66Z" stroke="rgba(50,50,50,1)" stroke-width="2" fill-opacity="1" fill="#ffffff"></path><g id="SvgjsG1058"><text id="SvgjsText1059" font-family="微软雅黑" text-anchor="middle" font-size="13px" width="80px" fill="#323232" font-weight="400" align="middle" lineHeight="125%" anchor="middle" family="微软雅黑" size="13px" weight="400" font-style="" opacity="1" y="25.375" transform="rotate(0)"><tspan id="SvgjsTspan1060" dy="16" x="50"><tspan id="SvgjsTspan1061" style="text-decoration:;">账本API</tspan></tspan></text></g></g><g id="SvgjsG1062" transform="translate(35.50001525878906,399)"><path id="SvgjsPath1063" d="M 0 0L 222.5 0L 222.5 47L 0 47Z" stroke="none" fill="none"></path><g id="SvgjsG1064"><text id="SvgjsText1065" font-family="微软雅黑" text-anchor="middle" font-size="13px" width="223px" fill="#323232" font-weight="700" align="middle" lineHeight="125%" anchor="middle" family="微软雅黑" size="13px" weight="700" font-style="" opacity="1" y="13.875" transform="rotate(0)"><tspan id="SvgjsTspan1066" dy="16" x="111.5"><tspan id="SvgjsTspan1067" style="text-decoration:;">Mondo API</tspan></tspan></text></g></g><g id="SvgjsG1068" transform="translate(542.0000152587891,518)"><path id="SvgjsPath1069" d="M 0 4Q 0 0 4 0L 31 0Q 35 0 35 4L 35 66Q 35 70 31 70L 4 70Q 0 70 0 66Z" stroke="rgba(50,50,50,1)" stroke-width="2" fill-opacity="1" fill="#ffffff"></path><g id="SvgjsG1070"><text id="SvgjsText1071" font-family="微软雅黑" text-anchor="middle" font-size="13px" width="15px" fill="#323232" font-weight="400" align="middle" lineHeight="125%" anchor="middle" family="微软雅黑" size="13px" weight="400" font-style="" opacity="1" y="17.375" transform="rotate(0)"><tspan id="SvgjsTspan1072" dy="16" x="17.5"><tspan id="SvgjsTspan1073" style="text-decoration:;">其</tspan></tspan><tspan id="SvgjsTspan1074" dy="16" x="17.5"><tspan id="SvgjsTspan1075" style="text-decoration:;">他</tspan></tspan></text></g></g><g id="SvgjsG1076" transform="translate(424.00001525878906,407)"><path id="SvgjsPath1077" d="M 0 4Q 0 0 4 0L 96 0Q 100 0 100 4L 100 66Q 100 70 96 70L 4 70Q 0 70 0 66Z" stroke="rgba(50,50,50,1)" stroke-width="2" fill-opacity="1" fill="#ffffff"></path><g id="SvgjsG1078"><text id="SvgjsText1079" font-family="微软雅黑" text-anchor="middle" font-size="13px" width="80px" fill="#323232" font-weight="400" align="middle" lineHeight="125%" anchor="middle" family="微软雅黑" size="13px" weight="400" font-style="" opacity="1" y="25.375" transform="rotate(0)"><tspan id="SvgjsTspan1080" dy="16" x="50"><tspan id="SvgjsTspan1081" style="text-decoration:;">账本解析服务</tspan></tspan></text></g></g><g id="SvgjsG1082" transform="translate(48.00001525878906,485)"><path id="SvgjsPath1083" d="M 0 4Q 0 0 4 0L 472 0Q 476 0 476 4L 476 17.600006103515625Q 476 21.600006103515625 472 21.600006103515625L 4 21.600006103515625Q 0 21.600006103515625 0 17.600006103515625Z" stroke="rgba(50,50,50,1)" stroke-width="2" fill-opacity="1" fill="#ffffff"></path><g id="SvgjsG1084"><text id="SvgjsText1085" font-family="微软雅黑" text-anchor="middle" font-size="13px" width="456px" fill="#323232" font-weight="400" align="middle" lineHeight="125%" anchor="middle" family="微软雅黑" size="13px" weight="400" font-style="" opacity="1" y="1.1750030517578125" transform="rotate(0)"><tspan id="SvgjsTspan1086" dy="16" x="238"><tspan id="SvgjsTspan1087" style="text-decoration:;">sqlite db</tspan></tspan></text></g></g><g id="SvgjsG1088" transform="translate(48.00001525878906,274)"><path id="SvgjsPath1089" d="M 0 4Q 0 0 4 0L 267.59999084472656 0Q 271.59999084472656 0 271.59999084472656 4L 271.59999084472656 32.60000038146973Q 271.59999084472656 36.60000038146973 267.59999084472656 36.60000038146973L 4 36.60000038146973Q 0 36.60000038146973 0 32.60000038146973Z" stroke="rgba(50,50,50,1)" stroke-width="2" fill-opacity="1" fill="#ffffff"></path><g id="SvgjsG1090"><text id="SvgjsText1091" font-family="微软雅黑" text-anchor="middle" font-size="13px" width="252px" fill="#323232" font-weight="400" align="middle" lineHeight="125%" anchor="middle" family="微软雅黑" size="13px" weight="400" font-style="" opacity="1" y="8.675000190734863" transform="rotate(0)"><tspan id="SvgjsTspan1092" dy="16" x="136"><tspan id="SvgjsTspan1093" style="text-decoration:;">Tendermint:P2P，BFT共识，ABCI RPC</tspan></tspan></text></g></g><g id="SvgjsG1094" transform="translate(49.00001525878906,203)"><path id="SvgjsPath1095" d="M 0 4Q 0 0 4 0L 516 0Q 520 0 520 4L 520 47.60000038146973Q 520 51.60000038146973 516 51.60000038146973L 4 51.60000038146973Q 0 51.60000038146973 0 47.60000038146973Z" stroke="rgba(50,50,50,1)" stroke-width="2" fill-opacity="1" fill="#ffffff"></path><g id="SvgjsG1096"><text id="SvgjsText1097" font-family="微软雅黑" text-anchor="middle" font-size="13px" width="500px" fill="#323232" font-weight="400" align="middle" lineHeight="125%" anchor="middle" family="微软雅黑" size="13px" weight="400" font-style="" opacity="1" y="16.175000190734863" transform="rotate(0)"><tspan id="SvgjsTspan1098" dy="16" x="260"><tspan id="SvgjsTspan1099" style="text-decoration:;">statedb/go-leveldb</tspan></tspan></text></g></g><g id="SvgjsG1100" transform="translate(48.00001525878906,446)"><path id="SvgjsPath1101" d="M 0 0L 244.75 0L 244.75 20L 0 20Z" stroke="none" fill="none"></path><g id="SvgjsG1102"><text id="SvgjsText1103" font-family="微软雅黑" text-anchor="middle" font-size="13px" width="245px" fill="#323232" font-weight="400" align="middle" lineHeight="125%" anchor="middle" family="微软雅黑" size="13px" weight="400" font-style="" opacity="1" y="0.375" transform="rotate(0)"><tspan id="SvgjsTspan1104" dy="16" x="122.5"><tspan id="SvgjsTspan1105" style="text-decoration:;">https://github.com/toolglobal/api</tspan></tspan></text></g></g><g id="SvgjsG1106" transform="translate(319.6000061035156,72)"><path id="SvgjsPath1107" d="M 0 0L 237.40000915527344 0L 237.40000915527344 27.599998474121094L 0 27.599998474121094Z" stroke="none" fill="none"></path><g id="SvgjsG1108"><text id="SvgjsText1109" font-family="微软雅黑" text-anchor="middle" font-size="13px" width="238px" fill="#323232" font-weight="400" align="middle" lineHeight="125%" anchor="middle" family="微软雅黑" size="13px" weight="400" font-style="" opacity="1" y="4.174999237060547" transform="rotate(0)"><tspan id="SvgjsTspan1110" dy="16" x="119"><tspan id="SvgjsTspan1111" style="text-decoration:;">https://github.com/toolglobal/mondo</tspan></tspan></text></g></g><g id="SvgjsG1112" transform="translate(48.00001525878906,108)"><path id="SvgjsPath1113" d="M 0 4Q 0 0 4 0L 96 0Q 100 0 100 4L 100 66Q 100 70 96 70L 4 70Q 0 70 0 66Z" stroke="rgba(50,50,50,1)" stroke-width="2" fill-opacity="1" fill="#ffffff"></path><g id="SvgjsG1114"><text id="SvgjsText1115" font-family="微软雅黑" text-anchor="middle" font-size="13px" width="80px" fill="#323232" font-weight="400" align="middle" lineHeight="125%" anchor="middle" family="微软雅黑" size="13px" weight="400" font-style="" opacity="1" y="17.375" transform="rotate(0)"><tspan id="SvgjsTspan1116" dy="16" x="50"><tspan id="SvgjsTspan1117" style="text-decoration:;">Wrapped</tspan></tspan><tspan id="SvgjsTspan1118" dy="16" x="50"><tspan id="SvgjsTspan1119" style="text-decoration:;">EVM</tspan></tspan></text></g></g><g id="SvgjsG1120" transform="translate(172.00001525878906,108)"><path id="SvgjsPath1121" d="M 0 4Q 0 0 4 0L 96 0Q 100 0 100 4L 100 66Q 100 70 96 70L 4 70Q 0 70 0 66Z" stroke="rgba(50,50,50,1)" stroke-width="2" fill-opacity="1" fill="#ffffff"></path><g id="SvgjsG1122"><text id="SvgjsText1123" font-family="微软雅黑" text-anchor="middle" font-size="13px" width="80px" fill="#323232" font-weight="400" align="middle" lineHeight="125%" anchor="middle" family="微软雅黑" size="13px" weight="400" font-style="" opacity="1" y="25.375" transform="rotate(0)"><tspan id="SvgjsTspan1124" dy="16" x="50"><tspan id="SvgjsTspan1125" style="text-decoration:;">多类型交易</tspan></tspan></text></g></g><g id="SvgjsG1126" transform="translate(290.50001525878906,108)"><path id="SvgjsPath1127" d="M 0 4Q 0 0 4 0L 96 0Q 100 0 100 4L 100 66Q 100 70 96 70L 4 70Q 0 70 0 66Z" stroke="rgba(50,50,50,1)" stroke-width="2" fill-opacity="1" fill="#ffffff"></path><g id="SvgjsG1128"><text id="SvgjsText1129" font-family="微软雅黑" text-anchor="middle" font-size="13px" width="80px" fill="#323232" font-weight="400" align="middle" lineHeight="125%" anchor="middle" family="微软雅黑" size="13px" weight="400" font-style="" opacity="1" y="25.375" transform="rotate(0)"><tspan id="SvgjsTspan1130" dy="16" x="50"><tspan id="SvgjsTspan1131" style="text-decoration:;">DPos 模块</tspan></tspan></text></g></g><g id="SvgjsG1132" transform="translate(409.00001525878906,108)"><path id="SvgjsPath1133" d="M 0 4Q 0 0 4 0L 96 0Q 100 0 100 4L 100 66Q 100 70 96 70L 4 70Q 0 70 0 66Z" stroke="rgba(50,50,50,1)" stroke-width="2" fill-opacity="1" fill="#ffffff"></path><g id="SvgjsG1134"><text id="SvgjsText1135" font-family="微软雅黑" text-anchor="middle" font-size="13px" width="80px" fill="#323232" font-weight="400" align="middle" lineHeight="125%" anchor="middle" family="微软雅黑" size="13px" weight="400" font-style="" opacity="1" y="25.375" transform="rotate(0)"><tspan id="SvgjsTspan1136" dy="16" x="50"><tspan id="SvgjsTspan1137" style="text-decoration:;">链治理</tspan></tspan></text></g></g><g id="SvgjsG1138" transform="translate(534.0000152587891,108)"><path id="SvgjsPath1139" d="M 0 4Q 0 0 4 0L 31 0Q 35 0 35 4L 35 66Q 35 70 31 70L 4 70Q 0 70 0 66Z" stroke="rgba(50,50,50,1)" stroke-width="2" fill-opacity="1" fill="#ffffff"></path><g id="SvgjsG1140"><text id="SvgjsText1141" font-family="微软雅黑" text-anchor="middle" font-size="13px" width="15px" fill="#323232" font-weight="400" align="middle" lineHeight="125%" anchor="middle" family="微软雅黑" size="13px" weight="400" font-style="" opacity="1" y="17.375" transform="rotate(0)"><tspan id="SvgjsTspan1142" dy="16" x="17.5"><tspan id="SvgjsTspan1143" style="text-decoration:;">其</tspan></tspan><tspan id="SvgjsTspan1144" dy="16" x="17.5"><tspan id="SvgjsTspan1145" style="text-decoration:;">他</tspan></tspan></text></g></g><g id="SvgjsG1146" transform="translate(337.6000061035156,274)"><path id="SvgjsPath1147" d="M 0 4Q 0 0 4 0L 227.40000915527344 0Q 231.40000915527344 0 231.40000915527344 4L 231.40000915527344 32.60000038146973Q 231.40000915527344 36.60000038146973 227.40000915527344 36.60000038146973L 4 36.60000038146973Q 0 36.60000038146973 0 32.60000038146973Z" stroke="rgba(50,50,50,1)" stroke-width="2" fill-opacity="1" fill="#ffffff"></path><g id="SvgjsG1148"><text id="SvgjsText1149" font-family="微软雅黑" text-anchor="middle" font-size="13px" width="212px" fill="#323232" font-weight="400" align="middle" lineHeight="125%" anchor="middle" family="微软雅黑" size="13px" weight="400" font-style="" opacity="1" y="8.675000190734863" transform="rotate(0)"><tspan id="SvgjsTspan1150" dy="16" x="116"><tspan id="SvgjsTspan1151" style="text-decoration:;">web3 providor JSON RPC</tspan></tspan></text></g></g></svg>