<svg id="SvgjsSvg1006" width="617" height="694" xmlns="http://www.w3.org/2000/svg" version="1.1" xmlns:xlink="http://www.w3.org/1999/xlink" xmlns:svgjs="http://svgjs.com/svgjs"><defs id="SvgjsDefs1007"></defs><g id="SvgjsG1008" transform="translate(25,25)"><path id="SvgjsPath1009" d="M 0 0L 567 0L 567 293L 0 293Z" stroke-dasharray="10,6" stroke="rgba(50,50,50,1)" stroke-width="2" fill-opacity="1" fill="#ffffff"></path><g id="SvgjsG1010"><text id="SvgjsText1011" font-family="微软雅黑" text-anchor="middle" font-size="13px" width="547px" fill="#323232" font-weight="400" align="middle" lineHeight="125%" anchor="middle" family="微软雅黑" size="13px" weight="400" font-style="" opacity="1" y="136.875" transform="rotate(0)"></text></g></g><g id="SvgjsG1012" transform="translate(226.5,38)"><path id="SvgjsPath1013" d="M 0 0L 164 0L 164 42L 0 42Z" stroke="none" fill="none"></path><g id="SvgjsG1014"><text id="SvgjsText1015" font-family="微软雅黑" text-anchor="middle" font-size="13px" width="164px" fill="#323232" font-weight="700" align="middle" lineHeight="125%" anchor="middle" family="微软雅黑" size="13px" weight="700" font-style="" opacity="1" y="11.375" transform="rotate(0)"><tspan id="SvgjsTspan1016" dy="16" x="82"><tspan id="SvgjsTspan1017" style="text-decoration:;">Mondo Blockchain</tspan></tspan></text></g></g><g id="SvgjsG1018" transform="translate(25,390)"><path id="SvgjsPath1019" d="M 0 0L 567 0L 567 279L 0 279Z" stroke-dasharray="10,6,3,6" stroke="rgba(50,50,50,1)" stroke-width="2" fill-opacity="1" fill="#ffffff"></path><g id="SvgjsG1020"><text id="SvgjsText1021" font-family="微软雅黑" text-anchor="middle" font-size="13px" width="547px" fill="#323232" font-weight="400" align="middle" lineHeight="125%" anchor="middle" family="微软雅黑" size="13px" weight="400" font-style="" opacity="1" y="129.875" transform="rotate(0)"></text></g></g><g id="SvgjsG1022" transform="translate(292.75,321)"><path id="SvgjsPath1023" d="M 15.75 0L 31.5 15.75L 21.105 15.75L 21.105 48.25L 31.5 48.25L 15.75 64L 0 48.25L 10.395000000000001 48.25L 10.395000000000001 15.75L 0 15.75L 15.75 0Z" stroke="rgba(50,50,50,1)" stroke-width="2" fill-opacity="1" fill="#ffffff"></path><g id="SvgjsG1024"><text id="SvgjsText1025" font-family="微软雅黑" text-anchor="middle" font-size="13px" width="45px" fill="#323232" font-weight="400" align="middle" lineHeight="125%" anchor="middle" family="微软雅黑" size="13px" weight="400" font-style="" opacity="1" y="22.375" transform="rotate(0)"></text></g></g><g id="SvgjsG1026" transform="translate(48,616)"><path id="SvgjsPath1027" d="M 0 4Q 0 0 4 0L 517 0Q 521 0 521 4L 521 26Q 521 30 517 30L 4 30Q 0 30 0 26Z" stroke="rgba(50,50,50,1)" stroke-width="2" fill-opacity="1" fill="#ffffff"></path><g id="SvgjsG1028"><text id="SvgjsText1029" font-family="微软雅黑" text-anchor="middle" font-size="13px" width="501px" fill="#323232" font-weight="400" align="middle" lineHeight="125%" anchor="middle" family="微软雅黑" size="13px" weight="400" font-style="" opacity="1" y="5.375" transform="rotate(0)"><tspan id="SvgjsTspan1030" dy="16" x="260.5"><tspan id="SvgjsTspan1031" style="text-decoration:;">HTTP REST API</tspan></tspan></text></g></g><g id="SvgjsG1032" transform="translate(317,333)"><path id="SvgjsPath1033" d="M 0 0L 120 0L 120 40L 0 40Z" stroke="none" fill="none"></path><g id="SvgjsG1034"><text id="SvgjsText1035" font-family="微软雅黑" text-anchor="middle" font-size="13px" width="120px" fill="#323232" font-weight="400" align="middle" lineHeight="125%" anchor="middle" family="微软雅黑" size="13px" weight="400" font-style="" opacity="1" y="10.375" transform="rotate(0)"><tspan id="SvgjsTspan1036" dy="16" x="60"><tspan id="SvgjsTspan1037" style="text-decoration:;">RPC interface</tspan></tspan></text></g></g><g id="SvgjsG1038" transform="translate(48,517)"><path id="SvgjsPath1039" d="M 0 4Q 0 0 4 0L 96 0Q 100 0 100 4L 100 66Q 100 70 96 70L 4 70Q 0 70 0 66Z" stroke="rgba(50,50,50,1)" stroke-width="2" fill-opacity="1" fill="#ffffff"></path><g id="SvgjsG1040"><text id="SvgjsText1041" font-family="微软雅黑" text-anchor="middle" font-size="13px" width="80px" fill="#323232" font-weight="400" align="middle" lineHeight="125%" anchor="middle" family="微软雅黑" size="13px" weight="400" font-style="" opacity="1" y="25.375" transform="rotate(0)"><tspan id="SvgjsTspan1042" dy="16" x="50"><tspan id="SvgjsTspan1043" style="text-decoration:;">账户API</tspan></tspan></text></g></g><g id="SvgjsG1044" transform="translate(172,517)"><path id="SvgjsPath1045" d="M 0 4Q 0 0 4 0L 96 0Q 100 0 100 4L 100 66Q 100 70 96 70L 4 70Q 0 70 0 66Z" stroke="rgba(50,50,50,1)" stroke-width="2" fill-opacity="1" fill="#ffffff"></path><g id="SvgjsG1046"><text id="SvgjsText1047" font-family="微软雅黑" text-anchor="middle" font-size="13px" width="80px" fill="#323232" font-weight="400" align="middle" lineHeight="125%" anchor="middle" family="微软雅黑" size="13px" weight="400" font-style="" opacity="1" y="25.375" transform="rotate(0)"><tspan id="SvgjsTspan1048" dy="16" x="50"><tspan id="SvgjsTspan1049" style="text-decoration:;">交易API</tspan></tspan></text></g></g><g id="SvgjsG1050" transform="translate(299,517)"><path id="SvgjsPath1051" d="M 0 4Q 0 0 4 0L 96 0Q 100 0 100 4L 100 66Q 100 70 96 70L 4 70Q 0 70 0 66Z" stroke="rgba(50,50,50,1)" stroke-width="2" fill-opacity="1" fill="#ffffff"></path><g id="SvgjsG1052"><text id="SvgjsText1053" font-family="微软雅黑" text-anchor="middle" font-size="13px" width="80px" fill="#323232" font-weight="400" align="middle" lineHeight="125%" anchor="middle" family="微软雅黑" size="13px" weight="400" font-style="" opacity="1" y="25.375" transform="rotate(0)"><tspan id="SvgjsTspan1054" dy="16" x="50"><tspan id="SvgjsTspan1055" style="text-decoration:;">合约API</tspan></tspan></text></g></g><g id="SvgjsG1056" transform="translate(424,517)"><path id="SvgjsPath1057" d="M 0 4Q 0 0 4 0L 96 0Q 100 0 100 4L 100 66Q 100 70 96 70L 4 70Q 0 70 0 66Z" stroke="rgba(50,50,50,1)" stroke-width="2" fill-opacity="1" fill="#ffffff"></path><g id="SvgjsG1058"><text id="SvgjsText1059" font-family="微软雅黑" text-anchor="middle" font-size="13px" width="80px" fill="#323232" font-weight="400" align="middle" lineHeight="125%" anchor="middle" family="微软雅黑" size="13px" weight="400" font-style="" opacity="1" y="25.375" transform="rotate(0)"><tspan id="SvgjsTspan1060" dy="16" x="50"><tspan id="SvgjsTspan1061" style="text-decoration:;">账本API</tspan></tspan></text></g></g><g id="SvgjsG1062" transform="translate(35.5,398)"><path id="SvgjsPath1063" d="M 0 0L 222.5 0L 222.5 47L 0 47Z" stroke="none" fill="none"></path><g id="SvgjsG1064"><text id="SvgjsText1065" font-family="微软雅黑" text-anchor="middle" font-size="13px" width="223px" fill="#323232" font-weight="700" align="middle" lineHeight="125%" anchor="middle" family="微软雅黑" size="13px" weight="700" font-style="" opacity="1" y="13.875" transform="rotate(0)"><tspan id="SvgjsTspan1066" dy="16" x="111.5"><tspan id="SvgjsTspan1067" style="text-decoration:;">Mondo API</tspan></tspan></text></g></g><g id="SvgjsG1068" transform="translate(542,517)"><path id="SvgjsPath1069" d="M 0 4Q 0 0 4 0L 31 0Q 35 0 35 4L 35 66Q 35 70 31 70L 4 70Q 0 70 0 66Z" stroke="rgba(50,50,50,1)" stroke-width="2" fill-opacity="1" fill="#ffffff"></path><g id="SvgjsG1070"><text id="SvgjsText1071" font-family="微软雅黑" text-anchor="middle" font-size="13px" width="15px" fill="#323232" font-weight="400" align="middle" lineHeight="125%" anchor="middle" family="微软雅黑" size="13px" weight="400" font-style="" opacity="1" y="17.375" transform="rotate(0)"><tspan id="SvgjsTspan1072" dy="16" x="17.5"><tspan id="SvgjsTspan1073" style="text-decoration:;">其</tspan></tspan><tspan id="SvgjsTspan1074" dy="16" x="17.5"><tspan id="SvgjsTspan1075" style="text-decoration:;">他</tspan></tspan></text></g></g><g id="SvgjsG1076" transform="translate(424,406)"><path id="SvgjsPath1077" d="M 0 4Q 0 0 4 0L 96 0Q 100 0 100 4L 100 66Q 100 70 96 70L 4 70Q 0 70 0 66Z" stroke="rgba(50,50,50,1)" stroke-width="2" fill-opacity="1" fill="#ffffff"></path><g id="SvgjsG1078"><text id="SvgjsText1079" font-family="微软雅黑" text-anchor="middle" font-size="13px" width="80px" fill="#323232" font-weight="400" align="middle" lineHeight="125%" anchor="middle" family="微软雅黑" size="13px" weight="400" font-style="" opacity="1" y="25.375" transform="rotate(0)"><tspan id="SvgjsTspan1080" dy="16" x="50"><tspan id="SvgjsTspan1081" style="text-decoration:;">账本解析服务</tspan></tspan></text></g></g><g id="SvgjsG1082" transform="translate(424,484)"><path id="SvgjsPath1083" d="M 0 4Q 0 0 4 0L 96 0Q 100 0 100 4L 100 20Q 100 24 96 24L 4 24Q 0 24 0 20Z" stroke="rgba(50,50,50,1)" stroke-width="2" fill-opacity="1" fill="#ffffff"></path><g id="SvgjsG1084"><text id="SvgjsText1085" font-family="微软雅黑" text-anchor="middle" font-size="13px" width="80px" fill="#323232" font-weight="400" align="middle" lineHeight="125%" anchor="middle" family="微软雅黑" size="13px" weight="400" font-style="" opacity="1" y="2.375" transform="rotate(0)"><tspan id="SvgjsTspan1086" dy="16" x="50"><tspan id="SvgjsTspan1087" style="text-decoration:;">sqlite db</tspan></tspan></text></g></g><g id="SvgjsG1088" transform="translate(48,274)"><path id="SvgjsPath1089" d="M 0 4Q 0 0 4 0L 517 0Q 521 0 521 4L 521 26Q 521 30 517 30L 4 30Q 0 30 0 26Z" stroke="rgba(50,50,50,1)" stroke-width="2" fill-opacity="1" fill="#ffffff"></path><g id="SvgjsG1090"><text id="SvgjsText1091" font-family="微软雅黑" text-anchor="middle" font-size="13px" width="501px" fill="#323232" font-weight="400" align="middle" lineHeight="125%" anchor="middle" family="微软雅黑" size="13px" weight="400" font-style="" opacity="1" y="5.375" transform="rotate(0)"><tspan id="SvgjsTspan1092" dy="16" x="260.5"><tspan id="SvgjsTspan1093" style="text-decoration:;">Tendermint:P2P，POS共识，RPC ABCI接口...</tspan></tspan></text></g></g><g id="SvgjsG1094" transform="translate(49,212)"><path id="SvgjsPath1095" d="M 0 4Q 0 0 4 0L 94 0Q 98 0 98 4L 98 47Q 98 51 94 51L 4 51Q 0 51 0 47Z" stroke="rgba(50,50,50,1)" stroke-width="2" fill-opacity="1" fill="#ffffff"></path><g id="SvgjsG1096"><text id="SvgjsText1097" font-family="微软雅黑" text-anchor="middle" font-size="13px" width="78px" fill="#323232" font-weight="400" align="middle" lineHeight="125%" anchor="middle" family="微软雅黑" size="13px" weight="400" font-style="" opacity="1" y="15.875" transform="rotate(0)"><tspan id="SvgjsTspan1098" dy="16" x="49"><tspan id="SvgjsTspan1099" style="text-decoration:;">stateDB</tspan></tspan></text></g></g><g id="SvgjsG1100" transform="translate(210.5,212)"><path id="SvgjsPath1101" d="M 0 4Q 0 0 4 0L 212 0Q 216 0 216 4L 216 47Q 216 51 212 51L 4 51Q 0 51 0 47Z" stroke="rgba(50,50,50,1)" stroke-width="2" fill-opacity="1" fill="#ffffff"></path><g id="SvgjsG1102"><text id="SvgjsText1103" font-family="微软雅黑" text-anchor="middle" font-size="13px" width="196px" fill="#323232" font-weight="400" align="middle" lineHeight="125%" anchor="middle" family="微软雅黑" size="13px" weight="400" font-style="" opacity="1" y="15.875" transform="rotate(0)"><tspan id="SvgjsTspan1104" dy="16" x="108"><tspan id="SvgjsTspan1105" style="text-decoration:;">xstateDB base IAVL</tspan></tspan></text></g></g><g id="SvgjsG1106" transform="translate(471,212)"><path id="SvgjsPath1107" d="M 0 4Q 0 0 4 0L 94 0Q 98 0 98 4L 98 47Q 98 51 94 51L 4 51Q 0 51 0 47Z" stroke="rgba(50,50,50,1)" stroke-width="2" fill-opacity="1" fill="#ffffff"></path><g id="SvgjsG1108"><text id="SvgjsText1109" font-family="微软雅黑" text-anchor="middle" font-size="13px" width="78px" fill="#323232" font-weight="400" align="middle" lineHeight="125%" anchor="middle" family="微软雅黑" size="13px" weight="400" font-style="" opacity="1" y="15.875" transform="rotate(0)"><tspan id="SvgjsTspan1110" dy="16" x="49"><tspan id="SvgjsTspan1111" style="text-decoration:;">sqlite3</tspan></tspan></text></g></g><g id="SvgjsG1112" transform="translate(48,445)"><path id="SvgjsPath1113" d="M 0 0L 197 0L 197 28L 0 28Z" stroke="none" fill="none"></path><g id="SvgjsG1114"><text id="SvgjsText1115" font-family="微软雅黑" text-anchor="middle" font-size="13px" width="197px" fill="#323232" font-weight="400" align="middle" lineHeight="125%" anchor="middle" family="微软雅黑" size="13px" weight="400" font-style="" opacity="1" y="4.375" transform="rotate(0)"><tspan id="SvgjsTspan1116" dy="16" x="98.5"><tspan id="SvgjsTspan1117" style="text-decoration:;">https://github.com/wolot/api</tspan></tspan></text></g></g><g id="SvgjsG1118" transform="translate(346,71)"><path id="SvgjsPath1119" d="M 0 0L 211 0L 211 27L 0 27Z" stroke="none" fill="none"></path><g id="SvgjsG1120"><text id="SvgjsText1121" font-family="微软雅黑" text-anchor="middle" font-size="13px" width="211px" fill="#323232" font-weight="400" align="middle" lineHeight="125%" anchor="middle" family="微软雅黑" size="13px" weight="400" font-style="" opacity="1" y="3.875" transform="rotate(0)"><tspan id="SvgjsTspan1122" dy="16" x="105.5"><tspan id="SvgjsTspan1123" style="text-decoration:;">https://github.com/wolot/mondo</tspan></tspan></text></g></g><g id="SvgjsG1124" transform="translate(48,107)"><path id="SvgjsPath1125" d="M 0 4Q 0 0 4 0L 96 0Q 100 0 100 4L 100 66Q 100 70 96 70L 4 70Q 0 70 0 66Z" stroke="rgba(50,50,50,1)" stroke-width="2" fill-opacity="1" fill="#ffffff"></path><g id="SvgjsG1126"><text id="SvgjsText1127" font-family="微软雅黑" text-anchor="middle" font-size="13px" width="80px" fill="#323232" font-weight="400" align="middle" lineHeight="125%" anchor="middle" family="微软雅黑" size="13px" weight="400" font-style="" opacity="1" y="25.375" transform="rotate(0)"><tspan id="SvgjsTspan1128" dy="16" x="50"><tspan id="SvgjsTspan1129" style="text-decoration:;">EVM虚拟机</tspan></tspan></text></g></g><g id="SvgjsG1130" transform="translate(172,107)"><path id="SvgjsPath1131" d="M 0 4Q 0 0 4 0L 96 0Q 100 0 100 4L 100 66Q 100 70 96 70L 4 70Q 0 70 0 66Z" stroke="rgba(50,50,50,1)" stroke-width="2" fill-opacity="1" fill="#ffffff"></path><g id="SvgjsG1132"><text id="SvgjsText1133" font-family="微软雅黑" text-anchor="middle" font-size="13px" width="80px" fill="#323232" font-weight="400" align="middle" lineHeight="125%" anchor="middle" family="微软雅黑" size="13px" weight="400" font-style="" opacity="1" y="25.375" transform="rotate(0)"><tspan id="SvgjsTspan1134" dy="16" x="50"><tspan id="SvgjsTspan1135" style="text-decoration:;">批量交易</tspan></tspan></text></g></g><g id="SvgjsG1136" transform="translate(290.5,107)"><path id="SvgjsPath1137" d="M 0 4Q 0 0 4 0L 96 0Q 100 0 100 4L 100 66Q 100 70 96 70L 4 70Q 0 70 0 66Z" stroke="rgba(50,50,50,1)" stroke-width="2" fill-opacity="1" fill="#ffffff"></path><g id="SvgjsG1138"><text id="SvgjsText1139" font-family="微软雅黑" text-anchor="middle" font-size="13px" width="80px" fill="#323232" font-weight="400" align="middle" lineHeight="125%" anchor="middle" family="微软雅黑" size="13px" weight="400" font-style="" opacity="1" y="25.375" transform="rotate(0)"><tspan id="SvgjsTspan1140" dy="16" x="50"><tspan id="SvgjsTspan1141" style="text-decoration:;">DPos 模块</tspan></tspan></text></g></g><g id="SvgjsG1142" transform="translate(409,107)"><path id="SvgjsPath1143" d="M 0 4Q 0 0 4 0L 96 0Q 100 0 100 4L 100 66Q 100 70 96 70L 4 70Q 0 70 0 66Z" stroke="rgba(50,50,50,1)" stroke-width="2" fill-opacity="1" fill="#ffffff"></path><g id="SvgjsG1144"><text id="SvgjsText1145" font-family="微软雅黑" text-anchor="middle" font-size="13px" width="80px" fill="#323232" font-weight="400" align="middle" lineHeight="125%" anchor="middle" family="微软雅黑" size="13px" weight="400" font-style="" opacity="1" y="25.375" transform="rotate(0)"><tspan id="SvgjsTspan1146" dy="16" x="50"><tspan id="SvgjsTspan1147" style="text-decoration:;">链治理</tspan></tspan></text></g></g><g id="SvgjsG1148" transform="translate(534,107)"><path id="SvgjsPath1149" d="M 0 4Q 0 0 4 0L 31 0Q 35 0 35 4L 35 66Q 35 70 31 70L 4 70Q 0 70 0 66Z" stroke="rgba(50,50,50,1)" stroke-width="2" fill-opacity="1" fill="#ffffff"></path><g id="SvgjsG1150"><text id="SvgjsText1151" font-family="微软雅黑" text-anchor="middle" font-size="13px" width="15px" fill="#323232" font-weight="400" align="middle" lineHeight="125%" anchor="middle" family="微软雅黑" size="13px" weight="400" font-style="" opacity="1" y="17.375" transform="rotate(0)"><tspan id="SvgjsTspan1152" dy="16" x="17.5"><tspan id="SvgjsTspan1153" style="text-decoration:;">其</tspan></tspan><tspan id="SvgjsTspan1154" dy="16" x="17.5"><tspan id="SvgjsTspan1155" style="text-decoration:;">他</tspan></tspan></text></g></g></svg>